<?xml version="1.0" encoding="UTF-8"?>
<svg width="447.87199px" height="511.877751px" viewBox="0 0 447.87199 511.877751" version="1.1" xmlns="http://www.w3.org/2000/svg" xmlns:xlink="http://www.w3.org/1999/xlink">
    <title>Path</title>
    <g id="Page-1" stroke="none" stroke-width="1" fill="none" fill-rule="evenodd">
        <g id="tiktok" fill="#2B3A34" fill-rule="nonzero">
            <path d="M447.87199,209.91 C403.846698,210.015307 360.901073,196.28544 325.10199,170.66 L325.10199,349.38 C325.077101,417.162851 282.993522,477.814896 219.507825,501.565301 C156.022128,525.315706 84.462865,507.178175 39.9546384,456.055447 C-4.55358819,404.93272 -12.6664651,331.557796 19.5981835,271.946489 C51.8628322,212.335182 117.73118,179.002632 184.87199,188.31 L184.87199,278.2 C154.095769,268.519426 120.583615,279.71419 101.804844,305.948653 C83.0260723,332.183116 83.2341789,367.515027 102.320681,393.526461 C121.407184,419.537896 155.048883,430.337121 185.708935,420.294684 C216.368987,410.252247 237.102719,381.642816 237.10199,349.38 L237.10199,0 L325.10199,0 C325.040865,7.43140026 325.663488,14.8526687 326.96199,22.17 L326.96199,22.17 C333.142117,55.1831654 352.639801,84.1964147 380.87199,102.39 C400.745885,115.530921 424.046469,122.535007 447.87199,122.53 L447.87199,209.91 Z" id="Path"></path>
        </g>
    </g>
</svg>